<svg width="25" height="25" viewBox="0 0 25 25" fill="none" xmlns="http://www.w3.org/2000/svg">
<path d="M12.5 13.541C14.2259 13.541 15.625 12.1419 15.625 10.416C15.625 8.69013 14.2259 7.29102 12.5 7.29102C10.7741 7.29102 9.375 8.69013 9.375 10.416C9.375 12.1419 10.7741 13.541 12.5 13.541Z" stroke="white" stroke-width="2.5" stroke-linecap="round" stroke-linejoin="round"/>
<path d="M12.4998 2.08301C10.2897 2.08301 8.17008 2.96098 6.60728 4.52378C5.04448 6.08659 4.1665 8.2062 4.1665 10.4163C4.1665 12.3872 4.58525 13.6768 5.729 15.1038L12.4998 22.9163L19.2707 15.1038C20.4144 13.6768 20.8332 12.3872 20.8332 10.4163C20.8332 8.2062 19.9552 6.08659 18.3924 4.52378C16.8296 2.96098 14.71 2.08301 12.4998 2.08301V2.08301Z" stroke="white" stroke-width="2.5" stroke-linecap="round" stroke-linejoin="round"/>
</svg>
