<svg width="25" height="25" viewBox="0 0 25 25" fill="none" xmlns="http://www.w3.org/2000/svg">
<path d="M9.375 3.125H19.0186L20.3125 4.41943V7.8125H23.4375V3.77197C23.4375 3.35771 23.2727 2.96045 22.9797 2.66748L20.7703 0.458008C20.4785 0.164795 20.0781 0 19.668 0H7.8125C6.94824 0 6.25 0.699707 6.25 1.5625V7.8125H9.375V3.125ZM3.125 6.25H1.5625C0.702148 6.25 0 6.95312 0 7.8125V23.4375C0 24.2979 0.702148 25 1.5625 25H3.125C3.98535 25 4.6875 24.2979 4.6875 23.4375V7.8125C4.6875 6.95312 3.98584 6.25 3.125 6.25ZM23.4375 9.375H6.25V23.4375C6.25 24.2969 6.95312 25 7.8125 25H23.4375C24.2969 25 25 24.2969 25 23.4375V10.9375C25 10.0781 24.2969 9.375 23.4375 9.375ZM14.0625 21.0938C14.0625 21.5271 13.7146 21.875 13.2812 21.875H11.7188C11.2842 21.875 10.9375 21.5283 10.9375 21.0938V19.5312C10.9375 19.0967 11.2842 18.75 11.7188 18.75H13.2812C13.7146 18.75 14.0625 19.0979 14.0625 19.5312V21.0938ZM14.0625 14.8438C14.0625 15.2771 13.7146 15.625 13.2812 15.625H11.7188C11.2842 15.625 10.9375 15.2783 10.9375 14.8438V13.2812C10.9375 12.8467 11.2842 12.5 11.7188 12.5H13.2812C13.7158 12.5 14.0625 12.8467 14.0625 13.2812V14.8438ZM20.3125 21.0938C20.3125 21.5271 19.9646 21.875 19.5312 21.875H17.9688C17.5354 21.875 17.1875 21.5271 17.1875 21.0938V19.5312C17.1875 19.0979 17.5354 18.75 17.9688 18.75H19.5312C19.9646 18.75 20.3125 19.0979 20.3125 19.5312V21.0938ZM20.3125 14.8438C20.3125 15.2771 19.9646 15.625 19.5312 15.625H17.9688C17.5342 15.625 17.1875 15.2783 17.1875 14.8438V13.2812C17.1875 12.8467 17.5342 12.5 17.9688 12.5H19.5312C19.9658 12.5 20.3125 12.8467 20.3125 13.2812V14.8438Z" fill="white"/>
</svg>
