<svg width="16" height="16" viewBox="0 0 16 16" fill="none" xmlns="http://www.w3.org/2000/svg">
<path d="M14.1524 13.1028C14.9736 12.1155 15.5448 10.9451 15.8176 9.69065C16.0904 8.43618 16.0568 7.13451 15.7196 5.89576C15.3825 4.65701 14.7517 3.51762 13.8806 2.57397C13.0095 1.63033 11.9238 0.910196 10.7152 0.474488C9.5067 0.0387795 8.21092 -0.099683 6.93751 0.0708131C5.66409 0.241309 4.4505 0.715748 3.39941 1.454C2.34832 2.19224 1.49064 3.17258 0.898924 4.31207C0.307212 5.45157 -0.00112228 6.7167 3.06942e-06 8.00044C0.000434906 9.86663 0.658614 11.6731 1.85905 13.1028L1.84761 13.1125C1.88764 13.1605 1.93338 13.2016 1.97456 13.249C2.02602 13.3079 2.08149 13.3633 2.13467 13.4204C2.29478 13.5941 2.45947 13.761 2.63217 13.9175C2.68478 13.9655 2.7391 14.0101 2.79228 14.0558C2.97527 14.2135 3.16341 14.3632 3.3584 14.5026C3.38356 14.5197 3.40644 14.542 3.4316 14.5597V14.5529C4.7709 15.4946 6.36861 16 8.00629 16C9.64398 16 11.2417 15.4946 12.581 14.5529V14.5597C12.6061 14.542 12.6285 14.5197 12.6542 14.5026C12.8486 14.3626 13.0373 14.2135 13.2203 14.0558C13.2735 14.0101 13.3278 13.9649 13.3804 13.9175C13.5531 13.7604 13.7178 13.5941 13.8779 13.4204C13.9311 13.3633 13.986 13.3079 14.038 13.249C14.0786 13.2016 14.1249 13.1605 14.165 13.1119L14.1524 13.1028ZM8.00572 3.4295C8.51467 3.4295 9.01218 3.58029 9.43535 3.86281C9.85852 4.14534 10.1883 4.5469 10.3831 5.01671C10.5779 5.48653 10.6288 6.0035 10.5295 6.50226C10.4303 7.00101 10.1852 7.45915 9.8253 7.81873C9.46542 8.17832 9.00691 8.42319 8.50774 8.5224C8.00858 8.62161 7.49118 8.57069 7.02097 8.37609C6.55077 8.18148 6.14888 7.85193 5.86613 7.42911C5.58337 7.00628 5.43245 6.50918 5.43245 6.00065C5.43245 5.31874 5.70357 4.66476 6.18615 4.18257C6.66873 3.70039 7.32325 3.4295 8.00572 3.4295ZM3.43503 13.1028C3.44495 12.3525 3.75008 11.6364 4.28441 11.1092C4.81874 10.5821 5.53931 10.2863 6.29021 10.2859H9.72123C10.4721 10.2863 11.1927 10.5821 11.727 11.1092C12.2614 11.6364 12.5665 12.3525 12.5764 13.1028C11.3223 14.232 9.69393 14.8569 8.00572 14.8569C6.31751 14.8569 4.68916 14.232 3.43503 13.1028Z" fill="#032164"/>
</svg>
