<svg width="16" height="16" viewBox="0 0 16 16" fill="none" xmlns="http://www.w3.org/2000/svg">
<path d="M13.5996 0.799805H11.9996C11.7874 0.799805 11.584 0.88409 11.4339 1.03412C11.2839 1.18415 11.1996 1.38763 11.1996 1.5998V15.1934H14.3996V1.5998C14.3996 1.38763 14.3153 1.18415 14.1653 1.03412C14.0153 0.88409 13.8118 0.799805 13.5996 0.799805ZM8.79961 5.5998H7.19961C6.98744 5.5998 6.78395 5.68409 6.63392 5.83412C6.48389 5.98415 6.39961 6.18763 6.39961 6.3998V15.1934H9.59961V6.3998C9.59961 6.18763 9.51532 5.98415 9.36529 5.83412C9.21527 5.68409 9.01178 5.5998 8.79961 5.5998ZM3.99961 10.3998H2.39961C2.18744 10.3998 1.98395 10.4841 1.83392 10.6341C1.68389 10.7841 1.59961 10.9876 1.59961 11.1998V15.1934H4.79961V11.1998C4.79961 10.9876 4.71532 10.7841 4.56529 10.6341C4.41527 10.4841 4.21178 10.3998 3.99961 10.3998Z" fill="#032164"/>
</svg>
