<svg width="47" height="27" viewBox="0 0 47 27" fill="none" xmlns="http://www.w3.org/2000/svg">
<path d="M39.1092 11.5239C38.1157 5.16641 31.4164 0.234863 23.3236 0.234863C17.0585 0.234863 11.6164 3.20857 9.1317 7.89816C4.24874 9.08579 0.591064 12.8316 0.591064 16.8581C0.591064 21.7656 5.3399 25.7515 11.2936 26.0396V26.0932H36.9405V26.0876L36.9632 26.0932C41.978 26.0932 46.0562 22.7796 46.0562 18.7051C46.0535 17.0493 45.3677 15.442 44.1083 14.1402C42.8489 12.8383 41.0888 11.9172 39.1092 11.5239ZM14.2306 13.164H21.0504V7.62295H25.5969V13.164H32.4167L23.3236 22.3991L14.2306 13.164Z" fill="#1B1B1B"/>
</svg>
