<svg width="12" height="7" viewBox="0 0 12 7" fill="none" xmlns="http://www.w3.org/2000/svg">
<path d="M0.979699 5.31311C0.784436 5.50838 0.784436 5.82496 0.979699 6.02022C1.17496 6.21548 1.49154 6.21548 1.68681 6.02022L0.979699 5.31311ZM5.99992 1L6.35347 0.646447C6.2597 0.552678 6.13253 0.5 5.99992 0.5C5.86731 0.5 5.74013 0.552678 5.64636 0.646447L5.99992 1ZM10.313 6.02022C10.5083 6.21548 10.8249 6.21548 11.0201 6.02022C11.2154 5.82496 11.2154 5.50838 11.0201 5.31311L10.313 6.02022ZM1.68681 6.02022L6.35347 1.35355L5.64636 0.646447L0.979699 5.31311L1.68681 6.02022ZM5.64637 1.35355L10.313 6.02022L11.0201 5.31311L6.35347 0.646447L5.64637 1.35355Z" fill="#6A6A6A"/>
</svg>
