<svg width="51" height="48" viewBox="0 0 51 48" fill="none" xmlns="http://www.w3.org/2000/svg">
<path d="M25.0782 0C24.0094 0 22.9407 0.553125 22.3875 1.66875L16.2657 14.0812L2.56879 16.0687C0.112545 16.425 -0.87183 19.4531 0.90942 21.1875L10.8188 30.8438L8.47504 44.4844C8.05317 46.9313 10.6313 48.7969 12.825 47.6438L25.0782 41.2125V0Z" fill="#F7C00F"/>
<path d="M24.9218 0C25.9906 0 27.0593 0.553125 27.6125 1.66875L33.7343 14.0812L47.4312 16.0687C49.8875 16.425 50.8718 19.4531 49.0906 21.1875L39.1812 30.8438L41.525 44.4844C41.9468 46.9313 39.3687 48.7969 37.175 47.6438L24.9218 41.2125V0Z" fill="#F7C00F"/>
</svg>
