<svg width="104" height="33" viewBox="0 0 104 33" fill="none" xmlns="http://www.w3.org/2000/svg">
<path d="M28.6177 33H4.49768C2.02892 33 0 30.9914 0 28.5302V4.48393C0 2.02272 2.02892 0 4.49768 0H28.6177C31.0865 0 33.1154 2.02272 33.1154 4.48393V28.5302C33.1012 30.9914 31.0865 33 28.6177 33Z" fill="#A9A9A9"/>
<path d="M15.5935 22.9145C13.2525 22.4619 11.4789 20.4109 11.4789 17.9355H9.53516C9.53516 20.6655 11.1101 23.0277 13.4086 24.1876L15.5935 22.9287V22.9145Z" fill="white"/>
<path d="M23.5671 17.9497H21.6375C21.6375 20.4109 19.864 22.4619 17.5371 22.9287L19.7221 24.1876C22.0064 23.0277 23.5671 20.6655 23.5671 17.9497Z" fill="white"/>
<path d="M17.537 22.9146C17.5228 22.9146 17.5228 22.9146 17.537 22.9146C17.2107 22.9711 16.8843 23.0136 16.558 23.0136C16.2317 23.0136 15.9195 22.9853 15.6074 22.9287L15.5932 22.9428L13.4082 24.1876C14.3588 24.6685 15.4229 24.9373 16.558 24.9373C17.6931 24.9373 18.7714 24.6685 19.722 24.1734L17.537 22.9146Z" fill="#D8D8D8"/>
<path d="M15.6083 22.9287H15.5938V22.9432L15.6083 22.9287Z" fill="#F4F5FB"/>
<path d="M24.2046 26.7621L22.4169 25.7295C20.7852 26.9601 18.7563 27.6815 16.5571 27.6815C14.3721 27.6815 12.3432 26.9601 10.7115 25.7436L8.92383 26.7762C10.9811 28.5443 13.6485 29.6052 16.5571 29.6052C19.4799 29.6052 22.1473 28.5302 24.2046 26.7621Z" fill="#D8D8D8"/>
<path d="M28.2493 17.9497H26.3197C26.3197 21.1323 24.7874 23.9613 22.418 25.7435L24.2057 26.7761C26.6886 24.6261 28.2493 21.4576 28.2493 17.9497Z" fill="white"/>
<path d="M6.78117 17.9497H4.85156C4.85156 21.4718 6.42646 24.6402 8.9236 26.7903L10.7113 25.7577C8.32769 23.9613 6.78117 21.1323 6.78117 17.9497Z" fill="white"/>
<path d="M17.5227 10.2265C18.9841 9.80216 20.0482 8.47254 20.0482 6.87417C20.0482 4.95047 18.4875 3.39453 16.5579 3.39453C14.6283 3.39453 13.0534 4.96461 13.0534 6.87417C13.0534 8.4584 14.1175 9.80216 15.5789 10.2265C15.5789 10.566 15.2951 10.8489 14.9546 10.8489H11.748V12.7726H15.5789V22.9145H15.5931C15.9052 22.971 16.2174 22.9993 16.5437 22.9993C16.87 22.9993 17.1963 22.971 17.5085 22.9003V22.9145V12.7726H21.3393V10.8489H18.1186C17.8064 10.8489 17.5227 10.566 17.5227 10.2265ZM14.9972 6.87417C14.9972 6.01133 15.6924 5.31823 16.5579 5.31823C17.4234 5.31823 18.1186 6.01133 18.1186 6.87417C18.1186 7.73701 17.4234 8.43011 16.5579 8.43011C15.6924 8.43011 14.9972 7.73701 14.9972 6.87417Z" fill="white"/>
<path d="M54.7943 16.4786C54.7943 21.0191 51.2472 24.5553 47.3171 24.5553C43.3869 24.5553 39.8398 21.0191 39.8398 16.4786C39.8398 11.9381 43.3869 8.40186 47.3171 8.40186C51.2472 8.40186 54.7943 11.9239 54.7943 16.4786ZM41.883 16.4786C41.883 20.1421 44.5362 22.7872 47.3313 22.7872C50.1122 22.7872 52.7795 20.1421 52.7795 16.4786C52.7795 12.8151 50.1263 10.17 47.3313 10.17C44.5362 10.1558 41.883 12.8151 41.883 16.4786Z" fill="#A9A9A9"/>
<path d="M56.4829 8.51514H65.7904V10.2832H58.5119V15.333H65.9749V17.1011H58.4977V22.66H66.0316V24.4281H56.4688V8.51514H56.4829Z" fill="#A9A9A9"/>
<path d="M83.625 18.5153C83.625 14.8942 86.1505 12.3481 89.2719 12.3481C92.3933 12.3481 94.9189 14.8942 94.9189 18.5153C94.9189 22.1364 92.3933 24.6825 89.2719 24.6825C86.1505 24.6825 83.625 22.1364 83.625 18.5153ZM92.9041 18.5153C92.9041 15.9409 91.1306 14.2294 89.2719 14.2294C87.3849 14.2294 85.6397 15.9409 85.6397 18.5153C85.6397 21.0897 87.3849 22.8012 89.2719 22.8012C91.1306 22.8154 92.9041 21.0897 92.9041 18.5153Z" fill="#A9A9A9"/>
<path d="M97.3031 14.3568H95.1465V12.4756H96.0829C97.0761 12.4756 97.5585 11.9946 97.5585 11.0045V8.3877H99.3037V12.4756H101.999V14.3568H99.3037V20.6655C99.3037 22.0375 100.112 22.8155 101.318 22.8155C101.503 22.8155 101.673 22.7872 101.801 22.7589L101.985 22.674V24.4138C101.9 24.4704 101.801 24.527 101.687 24.5411C101.446 24.626 101.148 24.6684 100.779 24.6684C98.9206 24.6684 97.2747 23.0559 97.2747 20.6513V14.3568H97.3031Z" fill="#A9A9A9"/>
<path d="M80.0916 8.5293V10.0711V13.9609C79.822 13.6639 79.5241 13.3951 79.1836 13.1547C78.5593 12.7586 77.6796 12.3484 76.4594 12.3484C73.338 12.3484 70.8125 14.8945 70.8125 18.5156C70.8125 22.1367 73.338 24.6827 76.4594 24.6827C77.6654 24.6827 78.5593 24.3574 79.1836 23.9614C79.5383 23.7492 79.8362 23.5087 80.0916 23.2117V24.5554H82.1064V22.1367V10.0711V8.5293H80.0916ZM76.6013 22.8156C74.5866 22.8156 72.8414 21.1041 72.8414 18.5297C72.8414 15.9554 74.5866 14.2438 76.6013 14.2438C78.616 14.2438 80.3754 15.9554 80.3754 18.5297C80.3612 21.0899 78.616 22.8156 76.6013 22.8156Z" fill="#A9A9A9"/>
<path d="M70.1312 22.6738H68.2441V24.5551H70.1312V22.6738Z" fill="#A9A9A9"/>
</svg>
