<svg width="246" height="27" viewBox="0 0 246 27" fill="none" xmlns="http://www.w3.org/2000/svg">
<rect x="0.5" y="0.5" width="245" height="26" rx="13" fill="white"/>
<rect x="19" y="6.5" width="14" height="14" rx="7" fill="#363636"/>
<path d="M49.6211 16.7285H46.4355V13.8301H48.5273V12.9414H46.627V8.97656H48.5547V8.08789H39.4766V8.97656H41.4043V12.9414H39.5039V13.8301H41.5957V16.7285H38.4922V17.6172H49.6211V16.7285ZM42.4707 12.9414V8.97656H45.5742V12.9414H42.4707ZM42.6758 16.7285V13.8301H45.3691V16.7285H42.6758ZM56.8262 8.4707V8.44336H60.6816V7.56836H51.6035V8.44336H55.4316V8.4707C55.4385 9.96777 53.415 11.1846 51.2754 11.4785L51.6719 12.3262C53.6406 12.0391 55.4658 11.0615 56.1289 9.63965C56.7852 11.0615 58.624 12.0391 60.5859 12.3262L61.0098 11.4785C58.8564 11.1846 56.8193 9.96777 56.8262 8.4707ZM50.5781 14.1035H55.6914V16.5918H56.7578V14.1035H61.707V13.2148H50.5781V14.1035ZM52 18.8477H60.4629V17.9453H53.0801V15.375H52V18.8477ZM72.7129 6.95312H71.6328V19.1348H72.7129V6.95312ZM63.1426 12.1348C63.1494 14.7256 64.4346 16.3662 66.2461 16.3594C68.0508 16.3662 69.3564 14.7256 69.3496 12.1348C69.3564 9.55078 68.0508 7.90332 66.2461 7.89648C64.4346 7.90332 63.1494 9.55078 63.1426 12.1348ZM64.1816 12.1348C64.1816 10.1592 65.0293 8.86035 66.2461 8.85352C67.4697 8.86035 68.3105 10.1592 68.3105 12.1348C68.3105 14.1104 67.4697 15.4092 66.2461 15.4023C65.0293 15.4092 64.1816 14.1104 64.1816 12.1348ZM84.1973 6.95312H83.1309V19.1074H84.1973V12.8594H86.2344V11.9707H84.1973V6.95312ZM74.7227 9.79688H81.9551V8.9082H78.9199V7.10352H77.8535V8.9082H74.7227V9.79688ZM75.4199 13.5977C75.4131 15.2451 76.6709 16.3867 78.4004 16.3867C80.1162 16.3867 81.3672 15.2451 81.3809 13.5977C81.3672 11.957 80.1162 10.8086 78.4004 10.8086C76.6709 10.8086 75.4131 11.957 75.4199 13.5977ZM76.4453 13.5977C76.4385 12.4971 77.2656 11.7041 78.4004 11.7109C79.5215 11.7041 80.3418 12.4971 80.3555 13.5977C80.3418 14.7051 79.5215 15.4844 78.4004 15.4707C77.2656 15.4844 76.4385 14.7051 76.4453 13.5977Z" fill="#363636"/>
<rect x="103" y="7" width="14" height="14" rx="7" fill="#0E0AFF"/>
<path d="M133.621 16.7285H130.436V13.8301H132.527V12.9414H130.627V8.97656H132.555V8.08789H123.477V8.97656H125.404V12.9414H123.504V13.8301H125.596V16.7285H122.492V17.6172H133.621V16.7285ZM126.471 12.9414V8.97656H129.574V12.9414H126.471ZM126.676 16.7285V13.8301H129.369V16.7285H126.676ZM140.826 8.4707V8.44336H144.682V7.56836H135.604V8.44336H139.432V8.4707C139.438 9.96777 137.415 11.1846 135.275 11.4785L135.672 12.3262C137.641 12.0391 139.466 11.0615 140.129 9.63965C140.785 11.0615 142.624 12.0391 144.586 12.3262L145.01 11.4785C142.856 11.1846 140.819 9.96777 140.826 8.4707ZM134.578 14.1035H139.691V16.5918H140.758V14.1035H145.707V13.2148H134.578V14.1035ZM136 18.8477H144.463V17.9453H137.08V15.375H136V18.8477Z" fill="#363636"/>
<rect x="164" y="7" width="14" height="14" rx="7" fill="#A160FB"/>
<path d="M193.621 17.7285H190.436V14.8301H192.527V13.9414H190.627V9.97656H192.555V9.08789H183.477V9.97656H185.404V13.9414H183.504V14.8301H185.596V17.7285H182.492V18.6172H193.621V17.7285ZM186.471 13.9414V9.97656H189.574V13.9414H186.471ZM186.676 17.7285V14.8301H189.369V17.7285H186.676ZM200.826 9.4707V9.44336H204.682V8.56836H195.604V9.44336H199.432V9.4707C199.438 10.9678 197.415 12.1846 195.275 12.4785L195.672 13.3262C197.641 13.0391 199.466 12.0615 200.129 10.6396C200.785 12.0615 202.624 13.0391 204.586 13.3262L205.01 12.4785C202.856 12.1846 200.819 10.9678 200.826 9.4707ZM194.578 15.1035H199.691V17.5918H200.758V15.1035H205.707V14.2148H194.578V15.1035ZM196 19.8477H204.463V18.9453H197.08V16.375H196V19.8477ZM216.713 7.95312H215.633V20.1348H216.713V7.95312ZM207.143 13.1348C207.149 15.7256 208.435 17.3662 210.246 17.3594C212.051 17.3662 213.356 15.7256 213.35 13.1348C213.356 10.5508 212.051 8.90332 210.246 8.89648C208.435 8.90332 207.149 10.5508 207.143 13.1348ZM208.182 13.1348C208.182 11.1592 209.029 9.86035 210.246 9.85352C211.47 9.86035 212.311 11.1592 212.311 13.1348C212.311 15.1104 211.47 16.4092 210.246 16.4023C209.029 16.4092 208.182 15.1104 208.182 13.1348ZM222.852 9.92188V8.58203H221.799V9.83984C221.792 11.7197 220.568 13.3467 218.75 14.0234L219.324 14.8848C220.746 14.3311 221.833 13.2168 222.353 11.7744C222.886 13.0459 223.945 14.0508 225.285 14.543L225.873 13.6953C224.109 13.0938 222.852 11.5762 222.852 9.92188ZM220.363 17.8652C220.37 19.2803 221.895 20.0801 224.396 20.0801C226.892 20.0801 228.402 19.2803 228.402 17.8652C228.402 16.4775 226.892 15.6641 224.396 15.6641C221.895 15.6641 220.37 16.4775 220.363 17.8652ZM221.443 17.8652C221.43 17.0381 222.564 16.5254 224.396 16.5254C226.235 16.5254 227.356 17.0381 227.363 17.8652C227.356 18.7266 226.235 19.2256 224.396 19.2324C222.564 19.2256 221.43 18.7266 221.443 17.8652ZM227.227 15.3496H228.293V12.0273H230.125V11.125H228.293V7.95312H227.227V15.3496Z" fill="#363636"/>
<rect x="0.5" y="0.5" width="245" height="26" rx="13" stroke="#DADADA"/>
</svg>
