<svg xmlns="http://www.w3.org/2000/svg" viewBox="0 0 647.59 255"><defs><style>.cls-1{fill:#edba22;}.cls-2{fill:#073b87;}.cls-3,.cls-4{fill:#053b87;}.cls-3{stroke:#ecba23;stroke-miterlimit:10;stroke-width:2px;}.cls-5{fill:#ecba23;}</style></defs><g id="Layer_2" data-name="Layer 2"><g id="Layer_1-2" data-name="Layer 1"><path class="cls-1" d="M73.9,145.61C31.77,145.61,0,115.49,0,75.55S31.77,5.49,73.9,5.49s73.9,30.12,73.9,70.06S116,145.61,73.9,145.61m0-107.22c-21.34,0-36.24,15.28-36.24,37.16s14.9,37.16,36.24,37.16,36.24-15.29,36.24-37.16S95.24,38.39,73.9,38.39"/><path class="cls-2" d="M3.83,75.55C3.83,37.49,33.47,9.31,73.9,9.31c40.25,0,70.07,28,70.07,66.24s-29.82,66.23-70.07,66.23c-40.43,0-70.07-28.18-70.07-66.23m110.14,0c0-24.34-17.2-41-40.07-41s-40.07,16.65-40.07,41,17.2,41,40.07,41S114,99.88,114,75.55"/><rect class="cls-1" x="149.48" width="36.19" height="143.41"/><rect class="cls-2" x="153.31" y="3.83" width="28.54" height="135.76"/><rect class="cls-1" x="193.57" width="36.2" height="143.41"/><rect class="cls-2" x="197.4" y="3.83" width="28.54" height="135.76"/><path class="cls-1" d="M271.86,144.87c-24.28,0-40.6-13.52-40.6-33.65,0-12.43,6-33.28,46.09-33.28h18.54c-1.4-7.89-7.5-11.74-18.54-11.74-9.57,0-19.53,3.19-26,8.32l-3.65,2.9-13.89-27,2.7-1.92c11.08-7.89,27.78-12.6,44.66-12.6,33.51,0,51.22,16.44,51.22,47.56v60H298v-6.08c-6.43,5-15.29,7.54-26.18,7.54m8.6-42.62c-13.74,0-13.74,5.39-13.74,7.69,0,7.49,9.39,8.07,12.28,8.07,8.3,0,14.54-3.72,17.21-10.24v-5.52Z"/><path class="cls-2" d="M328.58,83.42v56.16H301.87V127.32c-5.31,9-15.56,13.73-30,13.73-23.05,0-36.78-12.81-36.78-29.83,0-17.38,12.26-29.45,42.27-29.45H300c0-12.26-7.32-19.4-22.69-19.4-10.43,0-21.22,3.48-28.36,9.15L238.75,51.58c10.79-7.68,26.71-11.9,42.44-11.9,30,0,47.39,13.91,47.39,43.74M300,108.48V98.42H280.46c-13.36,0-17.56,4.94-17.56,11.52,0,7.14,6,11.9,16.1,11.9,9.51,0,17.74-4.4,21-13.36"/><path class="cls-2" d="M390.05,144.51c-32.95,0-56-22-56-53.41,0-30.84,22.08-53.23,52.49-53.23S438.34,60,438.34,91.65c0,2.06-.3,4.91-.39,5.73l-.39,3.4H360.14c3.55,12.72,15.06,20.71,30.46,20.71,10.4,0,18.87-3.52,25.16-10.45l2.91-3.23L433.33,125l-2.14,2.49c-9.57,11.17-23.8,17.07-41.14,17.07m23.05-64C410,68.28,399.79,60.35,386.57,60.35S363.14,68.28,360,80.5Z"/><path class="cls-1" d="M434.14,97H355.47c2.2,17,15.92,28.36,35.13,28.36,11.34,0,20.86-3.84,28-11.71l9.7,11.35c-8.78,10.24-22.14,15.73-38.24,15.73-31.29,0-52.14-20.67-52.14-49.58,0-28.73,20.67-49.4,48.66-49.4s47.94,20.12,47.94,50c0,1.46-.18,3.66-.37,5.3M355.47,84.33h62.2c-1.82-16.28-14.08-27.81-31.1-27.81-16.83,0-29.27,11.34-31.1,27.81"/><path class="cls-2" d="M489.71,144.51c-31.13,0-52.86-22-52.86-53.41s21.73-53.23,52.86-53.23c11.63,0,22,3.5,30,10V0H545V143.41H520.46V134c-8.06,6.84-18.67,10.52-30.75,10.52m1.46-83.62c-17.3,0-28.92,12.14-28.92,30.21,0,17.89,11.89,30.39,28.92,30.39S519.91,109,519.91,91.1s-11.82-30.21-28.74-30.21"/><path class="cls-1" d="M541.12,3.83V139.58H524.29V124.21c-7.87,11-20.31,16.47-34.59,16.47-28.35,0-49-19.94-49-49.58s20.68-49.4,49-49.4c13.73,0,25.81,5.12,33.85,15.55V3.83ZM523.74,91.1c0-20.68-14.09-34-32.57-34-18.66,0-32.75,13.36-32.75,34s14.09,34.21,32.75,34.21c18.48,0,32.57-13.54,32.57-34.21"/><polygon class="cls-1" points="79.44 51.62 122.85 76.68 79.44 101.74 79.44 51.62"/><polygon class="cls-2" points="115.2 76.68 83.27 58.25 83.27 95.11 115.2 76.68"/><path class="cls-2" d="M594.18,143.59c-28.94,0-45.54-16.8-45.54-46.09V37.87h25.21V95.49c0,16.4,7.52,24.72,22.34,24.72,16.64,0,26.18-10.35,26.18-28.38v-54h25.22V142.5h-24.3v-8.78c-7.68,6.36-17.85,9.87-29.11,9.87"/><path class="cls-1" d="M643.76,41.7v97H627.12V124c-7.14,10.07-19.22,15.73-32.94,15.73-25.07,0-41.72-13.71-41.72-42.26V41.7H570V95.49c0,19,9.51,28.54,26.16,28.54,18.3,0,30-11.34,30-32.2V41.7Z"/><path class="cls-3" d="M217.27,202.42v9.49H140.61v-9.49h32.06v-5c-15.48-1.1-24.42-6-24.42-14.28,0-9.31,11.34-14.47,30.69-14.47s30.78,5.16,30.78,14.47c0,8.38-9,13.27-24.88,14.28v5Zm-55.75,40.63h48.66v9.13H149.45v-22.3H196v-4.43H149.36v-9H208v21.84H161.52Zm17.42-54.27c12.35,0,18.15-1.66,18.15-5.62,0-3.78-5.8-5.53-18.15-5.53s-18.06,1.75-18.06,5.53c0,4,5.81,5.62,18.06,5.62"/><path class="cls-4" d="M307.59,254V166.86h14.16v32.07h12.16v12H321.75v43Zm-51-19.62v-37h26.91V185.82h-27V174.14h41v34.8H270.61v13.38a187.77,187.77,0,0,0,32.09-2.64l1.05-.19,1.33,11.85-.92.16c-13.14,2.39-25.23,2.88-39.34,2.88Z"/><path class="cls-5" d="M320.75,167.86v32.07h12.16v10H320.75v43H308.59V167.86h12.16m-24.23,7.28v32.8H269.61v15.39a192.47,192.47,0,0,0,33.27-2.67l1.1,9.86c-12.72,2.31-24.42,2.86-39.16,2.86h-7.19v-35h26.91V184.82h-27v-9.68h39m26.23-9.28H306.59V255h16.16V212h12.16v-14H322.75V165.86Zm-24.23,7.28h-43v13.68h27v9.54H255.63v39h9.19c14.16,0,26.3-.49,39.52-2.89l1.83-.34-.2-1.85-1.11-9.86-.23-2.12-2.1.37a183.9,183.9,0,0,1-30.92,2.62V209.94h26.91v-36.8Z"/><path class="cls-3" d="M418.79,169.34h11.34V249H418.79v-40h-6.63c-1.11,16.59-8,26.54-18.34,26.54-11.24,0-18.33-11.61-18.33-30.87s7.09-30.78,18.33-30.78c10.05,0,16.87,9.4,18.25,25.25h6.72Zm-17.6,35.38c0-13-2.67-19.35-7.37-19.35s-7.37,6.36-7.37,19.35,2.77,19.44,7.37,19.44,7.37-6.36,7.37-19.44m46.35,48H436V167.86h11.52Z"/><path class="cls-4" d="M535.78,253.91V226.36h-15.5v27.55H506.11V226.36H488.33V214.59h78.94v11.77H549.85v27.55Zm-37.68-45.7V171h59.4v11.68h-45v13.75h45.89v11.77Z"/><path class="cls-5" d="M556.5,172v9.68h-45v15.75h45.89v9.77H499.1V172h57.4m9.77,43.58v9.77H548.85v27.55H536.78V225.36h-17.5v27.55H507.11V225.36H489.33v-9.77h76.94M558.5,170H497.1v39.2h62.33V195.44H513.54V183.69h45V170Zm9.77,43.58H487.33v13.77h17.78v27.55h16.17V227.36h13.5v27.55h16.07V227.36h17.42V213.59Z"/></g></g></svg>