<svg width="16" height="16" viewBox="0 0 16 16" fill="none" xmlns="http://www.w3.org/2000/svg">
<path d="M3.49988 6.5C3.49988 5.30653 3.97399 4.16193 4.8179 3.31802C5.66182 2.47411 6.80641 2 7.99988 2C9.19336 2 10.338 2.47411 11.1819 3.31802C12.0258 4.16193 12.4999 5.30653 12.4999 6.5V8.404L13.4639 10.814C13.4943 10.8899 13.5056 10.972 13.4969 11.0533C13.4882 11.1345 13.4597 11.2124 13.4139 11.2801C13.3681 11.3478 13.3065 11.4033 13.2343 11.4416C13.1621 11.4799 13.0816 11.5 12.9999 11.5H2.99988C2.91816 11.5 2.83768 11.4799 2.7655 11.4416C2.69332 11.4033 2.63163 11.3478 2.58584 11.2801C2.54005 11.2124 2.51156 11.1345 2.50285 11.0533C2.49414 10.972 2.50548 10.8899 2.53588 10.814L3.49988 8.404V6.5ZM6.06188 12.5C6.17202 12.93 6.4224 13.311 6.77341 13.5827C7.12442 13.8543 7.55602 14.0012 7.99988 14C8.93588 14 9.71688 13.365 9.93788 12.5H6.06188Z" fill="#032164"/>
</svg>
