<svg width="25" height="25" viewBox="0 0 25 25" fill="none" xmlns="http://www.w3.org/2000/svg">
<path d="M2.51001 7.44995H20.73" stroke="#16E4CC" stroke-width="1.25" stroke-linecap="round" stroke-linejoin="round"/>
<path d="M17.73 3.55005H5.51001C3.85316 3.55005 2.51001 4.89319 2.51001 6.55005V17.75C2.51001 19.4069 3.85316 20.75 5.51001 20.75H17.73C19.3869 20.75 20.73 19.4069 20.73 17.75V6.55005C20.73 4.89319 19.3869 3.55005 17.73 3.55005Z" stroke="#0E0AFF" stroke-width="1.25" stroke-miterlimit="10" stroke-linecap="round"/>
<path d="M21.91 7C22.2859 7.45997 22.4908 8.03596 22.49 8.63V19.8C22.49 20.1388 22.4232 20.4743 22.2936 20.7873C22.1639 21.1003 21.9739 21.3848 21.7343 21.6243C21.4947 21.8639 21.2103 22.054 20.8973 22.1836C20.5843 22.3133 20.2488 22.38 19.91 22.38H6.84997C6.34175 22.3803 5.84475 22.2306 5.42133 21.9495C4.99792 21.6684 4.66696 21.2685 4.46997 20.8" stroke="#0E0AFF" stroke-width="1.25" stroke-miterlimit="10" stroke-linecap="round"/>
<path d="M5.48999 2.61011V4.49011" stroke="#0E0AFF" stroke-width="1.25" stroke-miterlimit="10" stroke-linecap="round"/>
<path d="M11.6201 2.61011V4.49011" stroke="#0E0AFF" stroke-width="1.25" stroke-miterlimit="10" stroke-linecap="round"/>
<path d="M17.75 2.61011V4.49011" stroke="#0E0AFF" stroke-width="1.25" stroke-miterlimit="10" stroke-linecap="round"/>
<path d="M7.83002 11.72H6.52002V13.03H7.83002V11.72Z" fill="#16E4CC"/>
<path d="M12.27 11.72H10.96V13.03H12.27V11.72Z" fill="#16E4CC"/>
<path d="M16.7199 11.72H15.4099V13.03H16.7199V11.72Z" fill="#16E4CC"/>
<path d="M7.83002 14.72H6.52002V16.03H7.83002V14.72Z" fill="#16E4CC"/>
<path d="M12.27 14.72H10.96V16.03H12.27V14.72Z" fill="#16E4CC"/>
<path d="M16.7199 14.72H15.4099V16.03H16.7199V14.72Z" fill="#16E4CC"/>
</svg>
