<svg width="25" height="25" viewBox="0 0 25 25" fill="none" xmlns="http://www.w3.org/2000/svg">
<path d="M12.5 16.72C14.8307 16.72 16.72 14.8307 16.72 12.5C16.72 10.1694 14.8307 8.28003 12.5 8.28003C10.1694 8.28003 8.28003 10.1694 8.28003 12.5C8.28003 14.8307 10.1694 16.72 12.5 16.72Z" stroke="#16E4CC" stroke-width="1.25" stroke-linecap="round" stroke-linejoin="round"/>
<path d="M19.3301 8.37011L20.5201 6.79011C20.5862 6.71376 20.6227 6.61612 20.6227 6.51511C20.6227 6.41409 20.5862 6.31646 20.5201 6.24011L18.7601 4.51011C18.6838 4.44397 18.5861 4.40756 18.4851 4.40756C18.3841 4.40756 18.2865 4.44397 18.2101 4.51011L16.6301 5.67011C16.5633 5.71398 16.4851 5.73736 16.4051 5.73736C16.3252 5.73736 16.2469 5.71398 16.1801 5.67011C15.7094 5.41578 15.2133 5.21133 14.7001 5.06011C14.6222 5.03923 14.5522 4.99583 14.4988 4.93535C14.4455 4.87488 14.4111 4.8 14.4001 4.72011L14.1201 2.72011C14.1058 2.62111 14.0567 2.53046 13.9815 2.46446C13.9064 2.39847 13.8101 2.36146 13.7101 2.36011H11.2801C11.1801 2.36146 11.0838 2.39847 11.0087 2.46446C10.9335 2.53046 10.8844 2.62111 10.8701 2.72011L10.5901 4.72011C10.5791 4.8 10.5447 4.87488 10.4914 4.93535C10.438 4.99583 10.368 5.03923 10.2901 5.06011C9.77687 5.21133 9.28085 5.41578 8.81011 5.67011C8.74327 5.71398 8.66506 5.73736 8.58511 5.73736C8.50515 5.73736 8.42695 5.71398 8.36011 5.67011L6.78011 4.48011C6.70376 4.41397 6.60612 4.37756 6.50511 4.37756C6.40409 4.37756 6.30646 4.41397 6.23011 4.48011L4.51011 6.24011C4.44397 6.31646 4.40756 6.41409 4.40756 6.51511C4.40756 6.61612 4.44397 6.71376 4.51011 6.79011L5.67011 8.37011C5.71398 8.43695 5.73736 8.51515 5.73736 8.59511C5.73736 8.67506 5.71398 8.75327 5.67011 8.82011C5.41578 9.29085 5.21133 9.78687 5.06011 10.3001C5.03923 10.378 4.99583 10.448 4.93535 10.5014C4.87488 10.5547 4.8 10.5891 4.72011 10.6001L2.72011 10.8801C2.62111 10.8944 2.53046 10.9435 2.46446 11.0187C2.39847 11.0938 2.36146 11.1901 2.36011 11.2901V13.7301C2.36146 13.8301 2.39847 13.9264 2.46446 14.0015C2.53046 14.0767 2.62111 14.1258 2.72011 14.1401L4.72011 14.4201C4.8 14.4311 4.87488 14.4655 4.93535 14.5188C4.99583 14.5722 5.03923 14.6422 5.06011 14.7201C5.21133 15.2333 5.41578 15.7294 5.67011 16.2001C5.71398 16.2669 5.73736 16.3452 5.73736 16.4251C5.73736 16.5051 5.71398 16.5833 5.67011 16.6501L4.48011 18.2201C4.41397 18.2965 4.37756 18.3941 4.37756 18.4951C4.37756 18.5961 4.41397 18.6938 4.48011 18.7701L6.20011 20.4901C6.27646 20.5562 6.37409 20.5927 6.47511 20.5927C6.57612 20.5927 6.67376 20.5562 6.75011 20.4901L8.33011 19.3001C8.39695 19.2562 8.47515 19.2329 8.55511 19.2329C8.63506 19.2329 8.71327 19.2562 8.78011 19.3001C9.25085 19.5544 9.74687 19.7589 10.2601 19.9101C10.338 19.931 10.408 19.9744 10.4614 20.0349C10.5147 20.0953 10.5491 20.1702 10.5601 20.2501L10.8401 22.2501C10.8544 22.3491 10.9035 22.4398 10.9787 22.5058C11.0538 22.5717 11.1501 22.6088 11.2501 22.6101H13.6901C13.7901 22.6088 13.8864 22.5717 13.9615 22.5058C14.0367 22.4398 14.0858 22.3491 14.1001 22.2501L14.3801 20.2501C14.3911 20.1702 14.4255 20.0953 14.4788 20.0349C14.5322 19.9744 14.6022 19.931 14.6801 19.9101C15.1933 19.7589 15.6894 19.5544 16.1601 19.3001C16.2269 19.2562 16.3052 19.2329 16.3851 19.2329C16.4651 19.2329 16.5433 19.2562 16.6101 19.3001L18.1901 20.4901C18.2665 20.5562 18.3641 20.5927 18.4651 20.5927C18.5661 20.5927 18.6638 20.5562 18.7401 20.4901L20.4601 18.7701C20.5262 18.6938 20.5627 18.5961 20.5627 18.4951C20.5627 18.3941 20.5262 18.2965 20.4601 18.2201L19.2701 16.6401C19.2262 16.5733 19.2029 16.4951 19.2029 16.4151C19.2029 16.3352 19.2262 16.2569 19.2701 16.1901C19.5244 15.7194 19.7289 15.2233 19.8801 14.7101C19.901 14.6322 19.9444 14.5622 20.0049 14.5088C20.0653 14.4555 20.1402 14.4211 20.2201 14.4101L22.2201 14.1301C22.3191 14.1158 22.4098 14.0667 22.4757 13.9915C22.5417 13.9164 22.5787 13.8201 22.5801 13.7201V11.2801C22.5787 11.1801 22.5417 11.0838 22.4757 11.0087C22.4098 10.9335 22.3191 10.8844 22.2201 10.8701L20.2201 10.5901" stroke="#0E0AFF" stroke-width="1.25" stroke-miterlimit="10" stroke-linecap="round"/>
</svg>
