<svg width="25" height="25" viewBox="0 0 25 25" fill="none" xmlns="http://www.w3.org/2000/svg">
<path d="M15.7 16.3999V19.3499C15.7 19.9042 15.4798 20.4358 15.0878 20.8278C14.6959 21.2197 14.1643 21.4399 13.61 21.4399H3.46997" stroke="#0E0AFF" stroke-width="1.25" stroke-miterlimit="10" stroke-linecap="round"/>
<path d="M15.7 8.10008V5.66008C15.7013 5.38394 15.6479 5.11026 15.5428 4.85488C15.4377 4.5995 15.2831 4.36747 15.0878 4.17221C14.8926 3.97694 14.6606 3.8223 14.4052 3.71724C14.1498 3.61217 13.8761 3.55876 13.6 3.56008H3.46997V21.4401" stroke="#0E0AFF" stroke-width="1.25" stroke-miterlimit="10" stroke-linecap="round"/>
<path d="M21.7801 12.3799L19.3601 15.6699" stroke="#16E4CC" stroke-width="1.25" stroke-linecap="round" stroke-linejoin="round"/>
<path d="M12.55 12.3801H21.67C21.6785 12.376 21.6856 12.3696 21.6906 12.3616C21.6956 12.3537 21.6983 12.3445 21.6983 12.3351C21.6983 12.3257 21.6956 12.3165 21.6906 12.3085C21.6856 12.3006 21.6785 12.2942 21.67 12.2901L19.31 9.09009" stroke="#16E4CC" stroke-width="1.25" stroke-linecap="round" stroke-linejoin="round"/>
</svg>
