<svg width="17" height="19" viewBox="0 0 17 19" fill="none" xmlns="http://www.w3.org/2000/svg">
<rect width="17" height="19" fill="#EBF2F7"/>
<path d="M14.1977 4.07467C13.8391 1.78 11.4211 0 8.50005 0C6.23872 0 4.27441 1.07333 3.37759 2.766C1.61513 3.19467 0.294922 4.54667 0.294922 6C0.294922 7.77133 2.00897 9.21 4.1579 9.314V9.33333H13.4149V9.33133L13.4231 9.33333C15.2332 9.33333 16.7052 8.13733 16.7052 6.66667C16.7042 6.06901 16.4567 5.48888 16.0021 5.019C15.5475 4.54912 14.9122 4.21662 14.1977 4.07467ZM5.218 4.66667H7.67954V2.66667H9.32057V4.66667H11.7821L8.50005 8L5.218 4.66667Z" fill="#1B1B1B"/>
<path d="M1.8 18.3335H2.544V16.0055H3.504C4.792 16.0055 5.672 15.4295 5.672 14.1975C5.672 12.9095 4.784 12.4695 3.472 12.4695H1.8V18.3335ZM2.544 15.4055V13.0775H3.376C4.416 13.0775 4.936 13.3415 4.936 14.1975C4.936 15.0295 4.44 15.4055 3.416 15.4055H2.544ZM6.8625 18.3335H8.3665C10.1345 18.3335 11.0945 17.2455 11.0945 15.3815C11.0945 13.5175 10.1345 12.4695 8.3265 12.4695H6.8625V18.3335ZM7.6065 17.7255V13.0775H8.2705C9.6465 13.0775 10.3345 13.8935 10.3345 15.3815C10.3345 16.8695 9.6465 17.7255 8.2705 17.7255H7.6065ZM12.3703 18.3335H13.1143V15.7015H15.3463V15.0855H13.1143V13.0935H15.7463V12.4695H12.3703V18.3335Z" fill="#1B1B1B"/>
</svg>
