<svg width="25" height="25" viewBox="0 0 25 25" fill="none" xmlns="http://www.w3.org/2000/svg">
<path d="M12.4993 16.72C14.8299 16.72 16.7193 14.8307 16.7193 12.5C16.7193 10.1694 14.8299 8.28003 12.4993 8.28003C10.1687 8.28003 8.2793 10.1694 8.2793 12.5C8.2793 14.8307 10.1687 16.72 12.4993 16.72Z" stroke="#16E4CC" stroke-width="1.25" stroke-linecap="round" stroke-linejoin="round"/>
<path d="M19.3294 8.36999L20.5194 6.78999C20.5855 6.71363 20.6219 6.616 20.6219 6.51499C20.6219 6.41397 20.5855 6.31634 20.5194 6.23999L18.7594 4.50999C18.683 4.44384 18.5854 4.40744 18.4844 4.40744C18.3834 4.40744 18.2857 4.44384 18.2094 4.50999L16.6294 5.66999C16.5625 5.71386 16.4843 5.73724 16.4044 5.73724C16.3244 5.73724 16.2462 5.71386 16.1794 5.66999C15.7086 5.41565 15.2126 5.21121 14.6994 5.05999C14.6215 5.0391 14.5515 4.99571 14.4981 4.93523C14.4447 4.87475 14.4104 4.79988 14.3994 4.71999L14.1194 2.71999C14.1051 2.62099 14.056 2.53034 13.9808 2.46434C13.9056 2.39835 13.8094 2.36134 13.7094 2.35999H11.2794C11.1794 2.36134 11.0831 2.39835 11.008 2.46434C10.9328 2.53034 10.8837 2.62099 10.8694 2.71999L10.5894 4.71999C10.5784 4.79988 10.544 4.87475 10.4907 4.93523C10.4373 4.99571 10.3673 5.0391 10.2894 5.05999C9.77614 5.21121 9.28011 5.41565 8.80938 5.66999C8.74254 5.71386 8.66433 5.73724 8.58438 5.73724C8.50442 5.73724 8.42621 5.71386 8.35938 5.66999L6.77938 4.47999C6.70302 4.41384 6.60539 4.37744 6.50438 4.37744C6.40336 4.37744 6.30573 4.41384 6.22938 4.47999L4.50938 6.23999C4.44323 6.31634 4.40683 6.41397 4.40683 6.51499C4.40683 6.616 4.44323 6.71363 4.50938 6.78999L5.66938 8.36999C5.71325 8.43682 5.73663 8.51503 5.73663 8.59499C5.73663 8.67494 5.71325 8.75315 5.66938 8.81999C5.41504 9.29072 5.2106 9.78675 5.05938 10.3C5.03849 10.3779 4.9951 10.4479 4.93462 10.5013C4.87414 10.5546 4.79927 10.589 4.71937 10.6L2.71938 10.88C2.62038 10.8943 2.52973 10.9434 2.46373 11.0186C2.39774 11.0937 2.36073 11.19 2.35938 11.29V13.73C2.36073 13.83 2.39774 13.9262 2.46373 14.0014C2.52973 14.0766 2.62038 14.1257 2.71938 14.14L4.71937 14.42C4.79927 14.431 4.87414 14.4653 4.93462 14.5187C4.9951 14.5721 5.03849 14.6421 5.05938 14.72C5.2106 15.2332 5.41504 15.7292 5.66938 16.2C5.71325 16.2668 5.73663 16.345 5.73663 16.425C5.73663 16.5049 5.71325 16.5831 5.66938 16.65L4.47938 18.22C4.41323 18.2963 4.37683 18.394 4.37683 18.495C4.37683 18.596 4.41323 18.6936 4.47938 18.77L6.19937 20.49C6.27573 20.5561 6.37336 20.5925 6.47437 20.5925C6.57539 20.5925 6.67302 20.5561 6.74938 20.49L8.32938 19.3C8.39621 19.2561 8.47442 19.2327 8.55438 19.2327C8.63433 19.2327 8.71254 19.2561 8.77938 19.3C9.25011 19.5543 9.74614 19.7588 10.2594 19.91C10.3373 19.9309 10.4073 19.9743 10.4607 20.0347C10.514 20.0952 10.5484 20.1701 10.5594 20.25L10.8394 22.25C10.8537 22.349 10.9028 22.4396 10.978 22.5056C11.0531 22.5716 11.1494 22.6086 11.2494 22.61H13.6894C13.7894 22.6086 13.8856 22.5716 13.9608 22.5056C14.036 22.4396 14.0851 22.349 14.0994 22.25L14.3794 20.25C14.3904 20.1701 14.4247 20.0952 14.4781 20.0347C14.5315 19.9743 14.6015 19.9309 14.6794 19.91C15.1926 19.7588 15.6886 19.5543 16.1594 19.3C16.2262 19.2561 16.3044 19.2327 16.3844 19.2327C16.4643 19.2327 16.5425 19.2561 16.6094 19.3L18.1894 20.49C18.2657 20.5561 18.3634 20.5925 18.4644 20.5925C18.5654 20.5925 18.663 20.5561 18.7394 20.49L20.4594 18.77C20.5255 18.6936 20.5619 18.596 20.5619 18.495C20.5619 18.394 20.5255 18.2963 20.4594 18.22L19.2694 16.64C19.2255 16.5731 19.2021 16.4949 19.2021 16.415C19.2021 16.335 19.2255 16.2568 19.2694 16.19C19.5237 15.7192 19.7281 15.2232 19.8794 14.71C19.9003 14.6321 19.9437 14.5621 20.0041 14.5087C20.0646 14.4553 20.1395 14.421 20.2194 14.41L22.2194 14.13C22.3184 14.1157 22.409 14.0666 22.475 13.9914C22.541 13.9162 22.578 13.82 22.5794 13.72V11.28C22.578 11.18 22.541 11.0837 22.475 11.0086C22.409 10.9334 22.3184 10.8843 22.2194 10.87L20.2194 10.59" stroke="#0E0AFF" stroke-width="1.25" stroke-miterlimit="10" stroke-linecap="round"/>
</svg>
