<svg width="24" height="24" viewBox="0 0 24 24" fill="none" xmlns="http://www.w3.org/2000/svg">
<path d="M8.58 17.5199L9.5 13.7855L6.5 11.3087L10.45 10.9535L12 7.48788L13.55 10.9919L17.5 11.3087L14.5 13.7855L15.42 17.5199L12 15.5423L8.58 17.5199ZM12 2.87988C13.3132 2.87988 14.6136 3.12819 15.8268 3.61064C17.0401 4.09308 18.1425 4.80022 19.0711 5.69166C19.9997 6.5831 20.7363 7.6414 21.2388 8.80612C21.7413 9.97085 22 11.2192 22 12.4799C22 15.026 20.9464 17.4678 19.0711 19.2681C17.1957 21.0685 14.6522 22.0799 12 22.0799C10.6868 22.0799 9.38642 21.8316 8.17317 21.3491C6.95991 20.8667 5.85752 20.1596 4.92893 19.2681C3.05357 17.4678 2 15.026 2 12.4799C2 9.93381 3.05357 7.49201 4.92893 5.69166C6.8043 3.89131 9.34784 2.87988 12 2.87988ZM12 4.79988C9.87827 4.79988 7.84344 5.60902 6.34315 7.0493C4.84286 8.48958 4 10.443 4 12.4799C4 14.5167 4.84286 16.4702 6.34315 17.9105C7.84344 19.3507 9.87827 20.1599 12 20.1599C14.1217 20.1599 16.1566 19.3507 17.6569 17.9105C19.1572 16.4702 20 14.5167 20 12.4799C20 10.443 19.1572 8.48958 17.6569 7.0493C16.1566 5.60902 14.1217 4.79988 12 4.79988Z" fill="#272727"/>
</svg>
