<svg width="72" height="65" viewBox="0 0 72 65" fill="none" xmlns="http://www.w3.org/2000/svg">
<path d="M52.2662 40.5811H14.293V45.9392H52.2662V40.5811Z" fill="white"/>
<path d="M53.1434 46.8176H13.5039V39.7906H53.1434V46.8176ZM15.1702 45.1487H51.5648V41.3717H15.1702V45.1487Z" fill="#0E0AFF"/>
<path d="M6.13864 40.5811H0.789062V45.9392H6.13864V40.5811Z" fill="white"/>
<path d="M7.01583 46.8176H0V39.7906H7.01583V46.8176ZM1.57856 45.1487H5.34957V41.3717H1.57856V45.1487Z" fill="#0E0AFF"/>
<path d="M19.6456 57.973H13.5067C12.2789 57.973 11.2266 56.9189 11.2266 55.6892V31.3581C11.2266 30.1284 12.2789 29.0743 13.5067 29.0743H19.6456V57.973Z" fill="white"/>
<path d="M20.4351 58.7635H15.4363C12.6299 58.7635 10.4375 56.4798 10.4375 53.7568V33.2906C10.4375 30.4798 12.7176 28.2838 15.4363 28.2838H20.4351V58.7635ZM15.4363 29.8649C13.5069 29.8649 12.0161 31.446 12.0161 33.2906V53.6689C12.0161 55.6014 13.5946 57.0946 15.4363 57.0946H18.7688V29.8649H15.4363Z" fill="#0E0AFF"/>
<path d="M10.9652 54.0203H7.19421C5.96644 54.0203 4.91406 52.9662 4.91406 51.7365V35.3108C4.91406 34.0811 5.96644 33.027 7.19421 33.027H11.0529V54.0203H10.9652Z" fill="white"/>
<path d="M11.7526 54.8108H9.03394C6.2276 54.8108 4.03516 52.5271 4.03516 49.8041V37.2433C4.03516 34.4325 6.3153 32.2365 9.03394 32.2365H11.7526V54.8108ZM9.12164 33.8176C7.19228 33.8176 5.70142 35.3987 5.70142 37.2433V49.8041C5.70142 51.7365 7.27998 53.2298 9.12164 53.2298H10.174V33.8176H9.12164Z" fill="#0E0AFF"/>
<path d="M65.8379 46.4275H71.1875V41.0694H65.8379V46.4275Z" fill="white"/>
<path d="M72.0002 47.2568H64.9844V40.2297H72.0002V47.2568ZM66.5629 45.5878H70.3339V41.8108H66.5629V45.5878Z" fill="#0E0AFF"/>
<path d="M52.3594 29.0743H58.4982C59.726 29.0743 60.7784 30.1284 60.7784 31.3581V55.6014C60.7784 56.8311 59.726 57.8852 58.4982 57.8852H52.3594V29.0743Z" fill="white"/>
<path d="M56.4793 58.7635H51.4805V28.2838H56.4793C59.2856 28.2838 61.478 30.5676 61.478 33.2906V53.6689C61.5657 56.4798 59.2856 58.7635 56.4793 58.7635ZM53.1467 57.0946H56.4793C58.4086 57.0946 59.8995 55.5135 59.8995 53.6689V33.2906C59.8995 31.3581 58.3209 29.8649 56.4793 29.8649H53.1467V57.0946Z" fill="#0E0AFF"/>
<path d="M61.0391 33.027H64.8978C66.1255 33.027 67.1779 34.0811 67.1779 35.3108V51.7365C67.1779 52.9662 66.1255 54.0203 64.8978 54.0203H61.0391V33.027Z" fill="white"/>
<path d="M62.8788 54.8108H60.1602V32.1487H62.8788C65.6851 32.1487 67.8776 34.4325 67.8776 37.1554V49.7162C67.9653 52.5271 65.6851 54.8108 62.8788 54.8108ZM61.8264 53.2298H62.8788C64.8081 53.2298 66.299 51.6487 66.299 49.8041V37.2433C66.299 35.3108 64.7204 33.8176 62.8788 33.8176H61.8264V53.2298Z" fill="#0E0AFF"/>
<path d="M37.0961 16.0743L38.587 19.1486C38.7624 19.5 39.1132 19.7635 39.5517 19.8513L42.9719 20.3784C44.0243 20.554 44.3751 21.7838 43.6735 22.4865L41.2179 24.8581C40.9548 25.1216 40.7794 25.5608 40.8671 25.9121L41.481 29.3378C41.6564 30.304 40.604 31.0946 39.7271 30.6554L36.6576 29.0743C36.3068 28.8986 35.8684 28.8986 35.5176 29.0743L32.4481 30.6554C31.5712 31.0946 30.5188 30.3919 30.6942 29.3378L31.3081 25.9121C31.3958 25.473 31.2204 25.1216 30.9573 24.8581L28.5017 22.4865C27.8001 21.7838 28.1509 20.554 29.2033 20.3784L32.6235 19.8513C33.062 19.7635 33.4128 19.5 33.5882 19.1486L35.0791 16.0743C35.3422 15.1959 36.6576 15.1959 37.0961 16.0743Z" stroke="#0E0AFF" stroke-width="2" stroke-miterlimit="10"/>
<path d="M67.2658 27.0541C66.8273 27.0541 66.4766 26.7027 66.4766 26.2635V21.6081C66.4766 21.1689 66.8273 20.8176 67.2658 20.8176C67.7043 20.8176 68.0551 21.1689 68.0551 21.6081V26.2635C68.0551 26.6149 67.7043 27.0541 67.2658 27.0541Z" fill="#A160FB"/>
<path d="M69.7199 24.6825H64.8088C64.3703 24.6825 64.0195 24.3311 64.0195 23.8919C64.0195 23.4527 64.3703 23.1014 64.8088 23.1014H69.7199C70.1584 23.1014 70.5092 23.4527 70.5092 23.8919C70.5092 24.3311 70.1584 24.6825 69.7199 24.6825Z" fill="#A160FB"/>
<path d="M5.87522 27.0541C5.43673 27.0541 5.08594 26.7027 5.08594 26.2635V21.6081C5.08594 21.1689 5.43673 20.8176 5.87522 20.8176C6.31371 20.8176 6.6645 21.1689 6.6645 21.6081V26.2635C6.6645 26.6149 6.31371 27.0541 5.87522 27.0541Z" fill="#A160FB"/>
<path d="M8.33318 24.6825H3.42209C2.9836 24.6825 2.63281 24.3311 2.63281 23.8919C2.63281 23.4527 2.9836 23.1014 3.42209 23.1014H8.33318C8.77167 23.1014 9.12246 23.4527 9.12246 23.8919C9.12246 24.3311 8.77167 24.6825 8.33318 24.6825Z" fill="#A160FB"/>
<path d="M67.2658 65C66.8273 65 66.4766 64.6486 66.4766 64.2094V59.554C66.4766 59.1148 66.8273 58.7635 67.2658 58.7635C67.7043 58.7635 68.0551 59.1148 68.0551 59.554V64.2094C68.0551 64.6486 67.7043 65 67.2658 65Z" fill="#A160FB"/>
<path d="M69.7199 62.7162H64.8088C64.3703 62.7162 64.0195 62.3649 64.0195 61.9257C64.0195 61.4865 64.3703 61.1351 64.8088 61.1351H69.7199C70.1584 61.1351 70.5092 61.4865 70.5092 61.9257C70.5092 62.3649 70.1584 62.7162 69.7199 62.7162Z" fill="#A160FB"/>
<path d="M5.87522 65C5.43673 65 5.08594 64.6486 5.08594 64.2094V59.554C5.08594 59.1148 5.43673 58.7635 5.87522 58.7635C6.31371 58.7635 6.6645 59.1148 6.6645 59.554V64.2094C6.6645 64.6486 6.31371 65 5.87522 65Z" fill="#A160FB"/>
<path d="M8.33318 62.7162H3.42209C2.9836 62.7162 2.63281 62.3649 2.63281 61.9257C2.63281 61.4865 2.9836 61.1351 3.42209 61.1351H8.33318C8.77167 61.1351 9.12246 61.4865 9.12246 61.9257C9.12246 62.3649 8.77167 62.7162 8.33318 62.7162Z" fill="#A160FB"/>
<path d="M35.9573 7.99324C35.5188 7.99324 35.168 7.64189 35.168 7.2027V0.79054C35.168 0.351351 35.5188 0 35.9573 0C36.3957 0 36.8342 0.351351 36.8342 0.79054V7.11486C36.8342 7.64189 36.3957 7.99324 35.9573 7.99324Z" fill="#00F2D5"/>
<path d="M30.2548 8.52026C29.904 8.52026 29.5532 8.25674 29.4655 7.81755L28.3254 1.58107C28.2377 1.14188 28.5008 0.70269 28.9393 0.614852C29.3778 0.527015 29.8163 0.790528 29.904 1.22972L31.044 7.4662C31.1317 7.90539 30.8686 8.34458 30.4301 8.43242C30.3425 8.52026 30.2548 8.52026 30.2548 8.52026Z" fill="#0E0AFF"/>
<path d="M24.6413 10.0135C24.2905 10.0135 24.0274 9.83786 23.852 9.48651L21.7472 3.51354C21.5718 3.07435 21.8349 2.63516 22.1857 2.45948C22.6242 2.28381 23.0627 2.54732 23.2381 2.89867L25.4305 8.87164C25.6059 9.31083 25.3429 9.75002 24.9921 9.9257C24.9044 10.0135 24.729 10.0135 24.6413 10.0135Z" fill="#00F2D5"/>
<path d="M19.4698 12.4729C19.2067 12.4729 18.9436 12.2973 18.7682 12.0338L15.611 6.49997C15.348 6.14862 15.5234 5.62159 15.8741 5.35808C16.2249 5.09456 16.7511 5.27024 17.0142 5.62159L20.1713 11.1554C20.4344 11.5067 20.259 12.0338 19.9082 12.2973C19.7329 12.3851 19.6452 12.4729 19.4698 12.4729Z" fill="#0E0AFF"/>
<path d="M14.734 15.8108C14.4709 15.8108 14.2955 15.723 14.1201 15.5473L10.086 10.7162C9.82288 10.3649 9.82288 9.83782 10.1737 9.57431C10.5245 9.3108 11.0507 9.3108 11.3137 9.66215L15.3478 14.4932C15.6109 14.8446 15.6109 15.3716 15.2602 15.6351C15.0848 15.723 14.9094 15.8108 14.734 15.8108Z" fill="#00F2D5"/>
<path d="M10.699 19.8514C10.5236 19.8514 10.3482 19.7635 10.1728 19.6757L5.34945 15.6352C4.99866 15.3716 4.99866 14.8446 5.26176 14.4933C5.52485 14.1419 6.05104 14.1419 6.40183 14.4054L11.2252 18.446C11.576 18.7095 11.576 19.2365 11.3129 19.5879C11.1375 19.7635 10.9621 19.8514 10.699 19.8514Z" fill="#0E0AFF"/>
<path d="M61.3874 19.6757C61.1243 19.6757 60.9489 19.5878 60.7735 19.4121C60.5104 19.0608 60.5104 18.5338 60.8612 18.2702L65.6846 14.2297C66.0353 13.9662 66.5615 13.9662 66.8246 14.3175C67.0877 14.6689 67.0877 15.1959 66.7369 15.4594L61.9135 19.5C61.7381 19.6757 61.5628 19.6757 61.3874 19.6757Z" fill="#0E0AFF"/>
<path d="M57.2663 15.6351C57.0909 15.6351 56.9155 15.5473 56.7401 15.4595C56.3893 15.1959 56.3893 14.6689 56.6524 14.3176L60.6865 9.48649C60.9496 9.13514 61.4758 9.13514 61.8266 9.39865C62.1774 9.66216 62.1774 10.1892 61.9143 10.5405L57.8802 15.3716C57.7048 15.5473 57.5294 15.6351 57.2663 15.6351Z" fill="#00F2D5"/>
<path d="M52.5314 12.3851C52.356 12.3851 52.2683 12.3851 52.0929 12.2973C51.7421 12.0338 51.5667 11.5946 51.8298 11.1554L54.9869 5.62159C55.25 5.27024 55.6885 5.09456 56.127 5.35808C56.4778 5.62159 56.6532 6.06078 56.3901 6.49997L53.233 12.0338C53.0576 12.2094 52.7945 12.3851 52.5314 12.3851Z" fill="#0E0AFF"/>
<path d="M47.2688 9.92569C47.1811 9.92569 47.0934 9.92569 47.0057 9.83786C46.5672 9.66218 46.3918 9.22299 46.5672 8.7838L48.7597 2.81083C48.9351 2.37164 49.3735 2.19597 49.812 2.37164C50.2505 2.54732 50.4259 2.98651 50.2505 3.42569L48.0581 9.39867C47.9704 9.75002 47.6196 9.92569 47.2688 9.92569Z" fill="#00F2D5"/>
<path d="M41.7436 8.43242C41.6559 8.43242 41.6559 8.43242 41.5682 8.43242C41.1297 8.34458 40.8666 7.90539 40.9543 7.4662L42.0944 1.22972C42.0944 0.790528 42.5329 0.527015 42.9714 0.614852C43.4098 0.70269 43.6729 1.14188 43.5852 1.58107L42.4452 7.81755C42.4452 8.16891 42.0944 8.43242 41.7436 8.43242Z" fill="#0E0AFF"/>
</svg>
