<svg width="71" height="72" viewBox="0 0 71 72" fill="none" xmlns="http://www.w3.org/2000/svg">
<g clip-path="url(#clip0_3043_6656)">
<path d="M17.7706 30.2641L5.88252 63.6794C5.57755 64.5366 5.49439 65.4948 5.94202 66.2869C6.83437 67.866 8.35223 68.705 9.59158 69.0885C10.3955 69.3372 11.2468 69.1392 11.9932 68.7507L43.153 52.5349C45.0262 51.5601 45.9884 49.3864 45.177 47.4368C40.4771 36.1426 29.6996 29.1994 21.9407 27.6389C20.0932 27.2674 18.4023 28.4886 17.7706 30.2641Z" stroke="#0E0AFF" stroke-width="2" stroke-linecap="round" stroke-linejoin="round"/>
<path d="M7.58203 59.5596C8.3069 61.0093 11.1757 64.069 15.2349 66.6785" stroke="#0E0AFF" stroke-width="2" stroke-linecap="round" stroke-linejoin="round"/>
<path d="M25.527 61.3064C18.0515 57.4802 12.3838 51.5193 11.7544 48.6211L10.3047 52.9703C12.5792 57.4802 17.4652 61.3064 21.9027 63.1185L25.527 61.3064Z" stroke="#0E0AFF" stroke-width="2" stroke-linecap="round" stroke-linejoin="round"/>
<path d="M36.9429 55.5724C25.7549 51.4024 18.2828 42.0623 15.5591 36.3633L14.1094 41.075C18.3866 48.9117 22.8491 53.893 33.0355 57.6296L36.9429 55.5724Z" stroke="#0E0AFF" stroke-width="2" stroke-linecap="round" stroke-linejoin="round"/>
<path d="M18.6367 28.4746C19.3453 33.1969 25.1784 46.0149 43.8779 52.2483" stroke="#0E0AFF" stroke-width="2"/>
<path d="M40.9189 19.4588C40.5572 19.2117 40.3811 18.6929 40.6001 18.1783L43.8171 10.9449C44.036 10.4303 44.6166 10.1627 45.1306 10.381C45.6446 10.5993 45.9111 11.1798 45.6922 11.6944L42.4752 18.9279C42.2563 19.4425 41.6757 19.71 41.1617 19.4917C41.0094 19.5205 40.9189 19.4588 40.9189 19.4588Z" fill="#0E0AFF"/>
<path d="M39.7437 30.6496C39.4759 30.303 39.4684 29.7552 39.8354 29.3332L45.1274 23.4453C45.4944 23.0234 46.1293 22.948 46.5508 23.3143C46.9724 23.6805 47.0468 24.3149 46.6798 24.7369L41.3878 30.6248C41.0208 31.0467 40.3859 31.1221 39.9644 30.7558C39.8106 30.7362 39.7437 30.6496 39.7437 30.6496Z" fill="#00F2D5"/>
<path d="M20.6277 18.4986C20.3083 18.4215 20.0405 18.1311 19.9049 17.7598L17.6957 10.1172C17.4794 9.61357 17.8469 9.02531 18.3499 8.80834C18.853 8.59137 19.4402 8.95892 19.6565 9.46254L21.8656 17.1052C22.0819 17.6088 21.7145 18.197 21.2114 18.414C20.9728 18.4692 20.8405 18.5501 20.6277 18.4986Z" fill="#00F2D5"/>
<path d="M52.8235 48.2087C52.7636 47.998 52.7336 47.8927 52.7792 47.652C52.9759 47.1407 53.4434 46.78 54.0608 46.946L61.7857 48.8474C62.2976 49.0434 62.6584 49.51 62.4917 50.1267C62.295 50.638 61.8275 50.9987 61.2101 50.8328L53.4852 48.9313C53.2142 48.7807 52.9134 48.5247 52.8235 48.2087Z" fill="#00F2D5"/>
<path d="M53.3947 30.8859C53.3289 30.7984 53.3289 30.7984 53.2632 30.7108C53.0221 30.2071 53.2634 29.6151 53.7677 29.3734L60.8499 25.8358C61.2884 25.5066 61.8803 25.7468 62.1214 26.2505C62.3625 26.7543 62.1212 27.3463 61.6169 27.588L54.5347 31.1255C54.1838 31.3889 53.6577 31.2362 53.3947 30.8859Z" fill="#0E0AFF"/>
<path d="M10.0155 23.1276C10.1077 22.8344 10.4163 22.6737 10.71 22.7659L13.8229 23.7441C14.1166 23.8363 14.2779 24.1447 14.1857 24.4379C14.0936 24.7311 13.785 24.8919 13.4913 24.7996L10.3783 23.8215C10.1434 23.7477 9.9234 23.4208 10.0155 23.1276Z" fill="#A160FB"/>
<path d="M11.0849 25.2676L12.1168 21.9837C12.2089 21.6905 12.5175 21.5297 12.8112 21.622C13.1049 21.7143 13.2661 22.0227 13.174 22.3159L12.1422 25.5998C12.0501 25.893 11.7414 26.0538 11.4477 25.9615C11.1541 25.8692 10.9928 25.5608 11.0849 25.2676Z" fill="#A160FB"/>
<path d="M33.6601 14.3986C33.7522 14.1054 34.0608 13.9447 34.3545 14.0369L37.4675 15.0151C37.7612 15.1073 37.9224 15.4157 37.8303 15.7089C37.7381 16.0021 37.4295 16.1629 37.1358 16.0706L34.0228 15.0925C33.7879 15.0187 33.5679 14.6918 33.6601 14.3986Z" fill="#A160FB"/>
<path d="M34.7334 16.5386L35.7652 13.2547C35.8573 12.9615 36.166 12.8007 36.4597 12.893C36.7533 12.9853 36.9146 13.2936 36.8225 13.5869L35.7906 16.8708C35.6985 17.164 35.3898 17.3248 35.0962 17.2325C34.8025 17.1402 34.6413 16.8318 34.7334 16.5386Z" fill="#A160FB"/>
<path d="M46.5858 30.0344C46.678 29.7412 46.9866 29.5804 47.2803 29.6727L50.3933 30.6508C50.6869 30.7431 50.8482 31.0515 50.756 31.3447C50.6639 31.6379 50.3553 31.7986 50.0616 31.7064L46.9486 30.7282C46.7137 30.6544 46.4937 30.3276 46.5858 30.0344Z" fill="#A160FB"/>
<path d="M47.6553 32.1743L48.6871 28.8904C48.7792 28.5972 49.0879 28.4365 49.3815 28.5287C49.6752 28.621 49.8365 28.9294 49.7443 29.2226L48.7125 32.5065C48.6204 32.7997 48.3117 32.9605 48.018 32.8682C47.7244 32.7759 47.5631 32.4676 47.6553 32.1743Z" fill="#A160FB"/>
<path d="M49.2383 56.5367C49.1467 56.2433 49.3085 55.9352 49.6024 55.8435L52.7172 54.8712C53.011 54.7794 53.3194 54.9408 53.4109 55.2341C53.5025 55.5275 53.3407 55.8356 53.0469 55.9273L49.9321 56.8997C49.697 56.973 49.3299 56.8301 49.2383 56.5367Z" fill="#A160FB"/>
<path d="M51.3359 57.6852L50.3101 54.3993C50.2185 54.1059 50.3804 53.7979 50.6742 53.7061C50.968 53.6144 51.2764 53.7757 51.368 54.0691L52.3937 57.3549C52.4853 57.6483 52.3235 57.9564 52.0296 58.0481C51.7358 58.1399 51.4274 57.9786 51.3359 57.6852Z" fill="#A160FB"/>
<path d="M57.8231 37.174C58.0626 38.2515 57.6428 39.1215 56.9344 39.9794C56.4865 40.5219 55.4177 40.1106 54.9543 39.8323C54.5492 39.589 53.7832 38.8949 53.3104 39.2862C52.6221 39.8558 52.8159 40.3539 52.7507 41.1102C52.695 41.7571 51.2685 40.9949 51.1393 40.6216C50.8536 39.7968 50.6854 38.945 49.7739 38.6455C49.1424 38.438 48.5676 39.0647 48.15 39.5033C47.5755 40.1068 47.1303 40.7057 46.6891 41.4403" stroke="#0E0AFF" stroke-width="2" stroke-linecap="round"/>
<path d="M27.7315 14.3076C27.4658 14.4527 26.4551 15.1044 26.3213 15.3428C25.8423 16.1959 26.973 16.7194 27.6881 16.9401C28.2435 17.1114 29.1974 17.4795 29.0784 18.153C28.9467 18.8981 27.867 18.9306 27.274 19.1756C26.9953 19.2907 26.4989 19.6197 26.5953 20.0007C26.7906 20.7722 28.1086 21.3037 28.7897 21.4731C29.2936 21.5985 29.7222 22.1958 29.6411 22.7209C29.496 23.661 28.7703 24.3679 27.9137 24.7433" stroke="#0E0AFF" stroke-width="2" stroke-linecap="round"/>
<path d="M65.0148 45.4199C64.7321 45.2992 64.6027 44.9762 64.7236 44.6931L66.0051 41.6922C66.1259 41.4091 66.4488 41.2792 66.7314 41.3999C67.0141 41.5206 67.1435 41.8436 67.0226 42.1267L65.7411 45.1276C65.6444 45.3541 65.2974 45.5406 65.0148 45.4199Z" fill="#A160FB"/>
<path d="M67.251 44.5672L64.0853 43.2154C63.8026 43.0947 63.6732 42.7717 63.7941 42.4886C63.915 42.2055 64.2378 42.0756 64.5205 42.1963L67.6862 43.5481C67.9688 43.6688 68.0982 43.9918 67.9773 44.2749C67.8564 44.558 67.5336 44.6879 67.251 44.5672Z" fill="#A160FB"/>
</g>
<defs>
<clipPath id="clip0_3043_6656">
<rect width="71" height="72" fill="white"/>
</clipPath>
</defs>
</svg>
