<svg width="32" height="32" viewBox="0 0 32 32" fill="none" xmlns="http://www.w3.org/2000/svg">
<path d="M10.3903 6.36865L2.93066 27.3362C3.41453 29.1104 5.14838 29.6883 5.95483 29.7555L25.7127 19.4734C22.0031 10.9251 13.9521 7.1751 10.3903 6.36865Z" fill="url(#paint0_linear_1700_3314)"/>
<path d="M7.97104 28.7474C5.71299 27.2958 4.34204 25.32 3.93882 24.5135L3.33398 26.1264C3.65656 27.4167 5.61891 28.8146 6.55976 29.3522L7.97104 28.7474Z" fill="#A160FB"/>
<path d="M13.6161 25.7233C9.68907 23.4249 6.65614 19.9437 5.95488 18.6669L5.14844 21.0862C7.16455 23.7071 9.96373 25.8801 11.6 26.7313L13.6161 25.7233Z" fill="#A160FB"/>
<path d="M20.471 22.0942C14.487 18.6466 9.64455 13.3241 8.57598 11.4088L7.76953 14.0298C10.8417 17.9612 13.8179 20.8845 18.4549 23.3039L20.471 22.0942Z" fill="#A160FB"/>
<path d="M29.7667 2.52551C30.4896 3.27041 30.5734 4.16553 30.4159 5.18935C30.3163 5.83677 29.2433 6.02066 28.729 6.02066C28.2795 6.02066 27.3149 5.83393 27.121 6.3726C26.8387 7.1568 27.2406 7.46133 27.5579 8.0959C27.8293 8.63868 26.2927 8.71399 26.0045 8.47818C25.3676 7.95704 24.8132 7.35807 23.9232 7.55585C23.3066 7.69287 23.1448 8.4682 23.0191 9.01822C22.8461 9.77489 22.7764 10.466 22.7764 11.2634" stroke="#E78989" stroke-width="1.20967" stroke-linecap="round"/>
<path d="M19.7188 15.7411C22.7021 13.4597 26.7792 13.4474 30.4226 13.4474" stroke="#4874FF" stroke-width="1.20967" stroke-linecap="round"/>
<path d="M12.9102 2.28577C13.5826 2.79999 14.1722 3.5994 14.6014 4.30188C15.1842 5.25547 15.4303 6.48401 15.4303 7.59765C15.4303 9.08877 15.3115 10.6671 15.9847 12.0135" stroke="#E75555" stroke-width="1.20967" stroke-linecap="round"/>
<path d="M4.97286 2.62622C4.76088 2.7958 3.97013 3.52896 3.88917 3.76028C3.59936 4.58831 4.6795 4.87413 5.34526 4.95735C5.8624 5.02199 6.76214 5.19812 6.76214 5.81139C6.76214 6.48982 5.81387 6.68696 5.32846 6.99586C5.10041 7.14098 4.7134 7.50888 4.85804 7.8303C5.15085 8.48099 6.39754 8.74466 7.02535 8.78795C7.48985 8.81999 7.96145 9.28048 7.97181 9.75681C7.99034 10.6095 7.45992 11.3469 6.76214 11.8121" stroke="#2150E6" stroke-width="1.20967" stroke-linecap="round"/>
<rect x="26.123" y="18.3229" width="1.61289" height="1.61289" rx="0.403222" transform="rotate(-16.4119 26.123 18.3229)" fill="#FFFF51"/>
<rect x="8.06445" y="6.42334" width="1.61289" height="1.61289" rx="0.403222" transform="rotate(-58.3117 8.06445 6.42334)" fill="#FFFF51"/>
<rect x="15.4307" y="3.85986" width="1.61289" height="1.61289" rx="0.403222" transform="rotate(-43.9989 15.4307 3.85986)" fill="#4782E1"/>
<rect x="17.2324" y="7.2843" width="1.61289" height="1.61289" rx="0.403222" transform="rotate(-11.5993 17.2324 7.2843)" fill="#4782E1"/>
<rect x="24.1152" y="3.75452" width="1.61289" height="1.61289" rx="0.403222" transform="rotate(-48.1481 24.1152 3.75452)" fill="#FF4D80"/>
<rect x="4.14062" y="16.441" width="1.61289" height="1.61289" rx="0.403222" transform="rotate(-48.1481 4.14062 16.441)" fill="#FF4D80"/>
<rect x="10.9951" y="4.74744" width="1.61289" height="1.61289" rx="0.403222" transform="rotate(-48.1481 10.9951 4.74744)" fill="#FF92C6"/>
<rect x="26.4131" y="23.0618" width="1.61289" height="1.61289" rx="0.403222" transform="rotate(-32.737 26.4131 23.0618)" fill="#FFB152"/>
<rect x="22.1904" y="22.4713" width="1.61289" height="1.61289" rx="0.403222" transform="rotate(45 22.1904 22.4713)" fill="#3D8BFC"/>
<rect x="28.2646" y="25.3198" width="1.61289" height="1.61289" rx="0.403222" transform="rotate(45 28.2646 25.3198)" fill="#FFA9E0"/>
<defs>
<linearGradient id="paint0_linear_1700_3314" x1="14.3217" y1="6.36865" x2="14.3217" y2="29.7555" gradientUnits="userSpaceOnUse">
<stop stop-color="#FFEDA0"/>
<stop offset="0.223958" stop-color="#FFE059"/>
<stop offset="1" stop-color="#F48007"/>
</linearGradient>
</defs>
</svg>
