<svg width="32" height="32" viewBox="0 0 32 32" fill="none" xmlns="http://www.w3.org/2000/svg">
<circle cx="16" cy="16" r="16" fill="url(#paint0_linear_1707_2487)"/>
<path d="M7.86914 8.83643L13.0737 11.7178L7.80594 15.1161" stroke="#363636" stroke-width="1.5" stroke-linecap="round" stroke-linejoin="round"/>
<path d="M23.834 14.7571L18.6007 11.9282L23.834 8.47713" stroke="#363636" stroke-width="1.5" stroke-linecap="round" stroke-linejoin="round"/>
<path d="M22.2273 23.9142C17.5532 27.6953 9.77321 25.2646 9.77344 23.9142C9.77367 22.5639 12.6948 21.5511 15.9235 21.551C19.8596 21.605 21.7661 23.149 22.2273 23.9142Z" fill="#E53935"/>
<mask id="path-5-inside-1_1707_2487" fill="white">
<path fill-rule="evenodd" clip-rule="evenodd" d="M6.16016 18.4921C7.08425 23.0812 11.1385 26.5372 15.9998 26.5372C20.8612 26.5372 24.9154 23.0812 25.8395 18.4921H6.16016Z"/>
</mask>
<path d="M6.16016 18.4921V17.4921H4.93872L5.17983 18.6895L6.16016 18.4921ZM25.8395 18.4921L26.8199 18.6895L27.061 17.4921H25.8395V18.4921ZM15.9998 25.5372C11.6239 25.5372 7.97242 22.4262 7.14048 18.2947L5.17983 18.6895C6.19608 23.7363 10.653 27.5372 15.9998 27.5372V25.5372ZM24.8592 18.2947C24.0273 22.4262 20.3758 25.5372 15.9998 25.5372V27.5372C21.3467 27.5372 25.8036 23.7363 26.8199 18.6895L24.8592 18.2947ZM25.8395 17.4921H6.16016V19.4921H25.8395V17.4921Z" fill="white" mask="url(#path-5-inside-1_1707_2487)"/>
<defs>
<linearGradient id="paint0_linear_1707_2487" x1="16" y1="0" x2="16" y2="32" gradientUnits="userSpaceOnUse">
<stop stop-color="#FFEDA0"/>
<stop offset="0.223958" stop-color="#FFE059"/>
<stop offset="1" stop-color="#F48007"/>
</linearGradient>
</defs>
</svg>
