<svg width="51" height="48" viewBox="0 0 51 48" fill="none" xmlns="http://www.w3.org/2000/svg">
<g clip-path="url(#clip0_373_32855)">
<path d="M24.9218 36.1219L36.575 42.2531L34.3531 29.2781L43.7843 20.0906L30.7531 18.1969L24.9218 6.38437V0C25.9906 0 27.0593 0.553125 27.6125 1.66875L33.7343 14.0812L47.4312 16.0687C49.8875 16.425 50.8718 19.4531 49.0906 21.1875L39.1812 30.8438L41.525 44.4844C41.9468 46.9313 39.3687 48.7969 37.175 47.6438L24.9218 41.2125V36.1219Z" fill="#F7C00F"/>
</g>
<g clip-path="url(#clip1_373_32855)">
<path d="M25.0782 36.1219L13.425 42.2531L15.6469 29.2781L6.21567 20.0906L19.2469 18.1969L25.0782 6.38437V0C24.0094 0 22.9407 0.553125 22.3875 1.66875L16.2657 14.0812L2.56879 16.0687C0.112545 16.425 -0.87183 19.4531 0.90942 21.1875L10.8188 30.8438L8.47504 44.4844C8.05317 46.9313 10.6313 48.7969 12.825 47.6438L25.0782 41.2125V36.1219Z" fill="#F7C00F"/>
</g>
<defs>
<clipPath id="clip0_373_32855">
<rect width="25.08" height="48" fill="white" transform="translate(25)"/>
</clipPath>
<clipPath id="clip1_373_32855">
<rect width="25.08" height="48" fill="white"/>
</clipPath>
</defs>
</svg>
