<svg version="1.0" xmlns="http://www.w3.org/2000/svg"
 width="1000.000000pt" height="1000.000000pt" viewBox="0 0 1000.000000 1000.000000"
 preserveAspectRatio="xMidYMid meet">
<metadata>
Created by potrace 1.14, written by Peter Selinger 2001-2017
</metadata>
<g transform="translate(0.000000,1000.000000) scale(0.100000,-0.100000)"
fill="#000000" stroke="none">
<path d="M4710 9737 c-3 -3 -57 -7 -120 -11 -63 -3 -128 -8 -145 -10 -16 -2
-57 -7 -90 -11 -33 -3 -71 -8 -85 -10 -14 -2 -47 -6 -75 -10 -27 -3 -63 -8
-80 -11 -16 -3 -43 -7 -60 -10 -16 -3 -43 -7 -60 -10 -151 -24 -452 -98 -649
-159 -368 -115 -723 -270 -1043 -458 -148 -86 -346 -215 -351 -229 -2 -4 -8
-8 -13 -8 -6 0 -15 -5 -22 -10 -7 -6 -50 -40 -97 -76 -395 -302 -725 -644
-997 -1034 -155 -222 -339 -554 -437 -785 -21 -49 -44 -103 -51 -120 -19 -44
-66 -168 -70 -185 -2 -8 -15 -48 -29 -88 -22 -65 -81 -264 -91 -309 -2 -10
-17 -76 -33 -148 -31 -133 -62 -315 -77 -445 -3 -25 -7 -58 -10 -75 -28 -204
-28 -803 1 -1050 10 -92 41 -307 50 -345 2 -14 9 -51 15 -82 15 -92 88 -372
129 -503 100 -311 230 -609 388 -885 88 -153 191 -310 291 -445 544 -732 1292
-1288 2181 -1620 282 -105 658 -207 918 -250 17 -3 47 -7 65 -10 17 -3 46 -8
62 -11 17 -2 41 -6 55 -9 14 -2 50 -7 80 -10 30 -3 75 -9 100 -12 165 -21 332
-28 640 -28 275 0 462 7 565 20 17 2 55 7 86 10 31 3 65 7 75 9 11 2 45 7 78
11 64 7 71 9 166 25 36 7 76 14 90 16 187 31 547 128 777 210 861 306 1561
792 2138 1485 107 128 289 391 384 554 29 50 57 97 62 105 37 60 207 420 249
530 29 74 56 144 61 155 56 135 172 586 203 790 2 17 8 50 12 75 8 53 10 65
19 145 3 33 8 71 11 85 25 158 25 943 -1 1023 -2 6 -6 39 -10 72 -8 85 -14
132 -25 195 -5 30 -12 71 -15 90 -13 77 -38 192 -71 325 -37 146 -150 498
-178 550 -9 17 -16 34 -16 39 0 14 -100 236 -158 351 -221 435 -488 802 -841
1156 -249 248 -458 420 -747 612 -71 48 -135 87 -142 87 -7 0 -12 4 -12 9 0 5
-12 14 -27 20 -16 6 -50 25 -77 41 -57 36 -318 170 -426 219 -307 139 -791
294 -1080 346 -14 3 -36 7 -50 10 -142 30 -381 65 -555 81 -38 3 -83 8 -100
10 -40 6 -730 16 -735 11z m492 -2232 c53 -3 107 -8 120 -10 12 -2 58 -9 101
-15 115 -17 122 -18 237 -47 213 -52 443 -143 621 -245 35 -20 243 -159 249
-167 3 -3 25 -22 50 -41 143 -109 339 -328 463 -516 79 -120 202 -371 251
-513 32 -92 92 -309 101 -366 2 -11 8 -45 13 -75 6 -30 8 -57 6 -59 -5 -5 -7
-4 -184 100 -69 40 -127 74 -130 74 -3 0 -16 8 -30 17 -25 16 -251 147 -323
187 -21 12 -98 56 -170 98 -221 128 -370 214 -412 238 -22 12 -110 63 -195
112 -85 49 -213 124 -285 165 -71 42 -170 98 -218 127 -49 28 -89 51 -90 51
-1 0 -2 -763 -2 -1695 0 -1421 2 -1694 13 -1690 12 4 214 120 532 305 155 90
257 149 290 167 19 11 89 52 155 90 66 39 140 81 165 95 36 20 263 151 462
267 386 224 398 230 392 203 -117 -504 -345 -916 -683 -1236 -30 -28 -62 -58
-71 -67 -83 -78 -310 -229 -458 -304 -296 -149 -569 -224 -950 -260 -134 -13
-416 -7 -547 11 -22 3 -51 7 -65 8 -101 10 -325 61 -445 101 -367 124 -646
294 -905 554 -147 147 -154 155 -247 286 -250 353 -408 791 -450 1246 -16 168
-9 576 12 701 2 13 6 39 9 58 3 19 8 53 11 75 4 22 22 101 40 175 84 335 220
624 418 889 77 103 272 305 377 390 135 111 345 237 530 319 144 64 429 147
571 166 19 3 50 7 70 11 51 8 99 13 219 21 58 3 106 7 107 8 3 3 185 -3 275
-9z"/>
</g>
</svg>