<svg width="136" height="43" viewBox="0 0 136 43" fill="none" xmlns="http://www.w3.org/2000/svg">
<path d="M37.4232 43H5.88158C2.65321 43 0 40.3828 0 37.1757V5.84269C0 2.63566 2.65321 0 5.88158 0H37.4232C40.6516 0 43.3048 2.63566 43.3048 5.84269V37.1757C43.2862 40.3828 40.6516 43 37.4232 43Z" fill="#0E0AFF"/>
<path d="M20.3913 29.8586C17.3299 29.2688 15.0106 26.5962 15.0106 23.3708H12.4688C12.4688 26.928 14.5282 30.006 17.534 31.5174L20.3913 29.877V29.8586Z" fill="white"/>
<path d="M30.817 23.3892H28.2937C28.2937 26.5963 25.9745 29.2688 22.9316 29.877L25.7889 31.5174C28.7761 30.006 30.817 26.928 30.817 23.3892Z" fill="white"/>
<path d="M22.9324 29.8586C22.9138 29.8586 22.9138 29.8586 22.9324 29.8586C22.5056 29.9323 22.0789 29.9876 21.6522 29.9876C21.2254 29.9876 20.8172 29.9507 20.4091 29.877L20.3905 29.8954L17.5332 31.5174C18.7763 32.1441 20.1679 32.4942 21.6522 32.4942C23.1365 32.4942 24.5466 32.144 25.7897 31.499L22.9324 29.8586Z" fill="#4874FF"/>
<path d="M20.4097 29.877H20.3906V29.8962L20.4097 29.877Z" fill="#F4F5FB"/>
<path d="M31.6525 34.8718L29.3147 33.5264C27.181 35.1299 24.5278 36.0699 21.6519 36.0699C18.7946 36.0699 16.1414 35.1299 14.0077 33.5448L11.6699 34.8903C14.3602 37.1942 17.8484 38.5765 21.6519 38.5765C25.474 38.5765 28.9621 37.1757 31.6525 34.8718Z" fill="#4874FF"/>
<path d="M36.9401 23.3892H34.4168C34.4168 27.5362 32.413 31.2225 29.3145 33.5448L31.6522 34.8903C34.8992 32.0887 36.9401 27.9602 36.9401 23.3892Z" fill="white"/>
<path d="M8.86903 23.3892H6.3457C6.3457 27.9786 8.40518 32.1072 11.6707 34.9087L14.0085 33.5632C10.8914 31.2225 8.86903 27.5362 8.86903 23.3892Z" fill="white"/>
<path d="M22.9147 13.3257C24.8258 12.7728 26.2173 11.0403 26.2173 8.95754C26.2173 6.45089 24.1764 4.42346 21.653 4.42346C19.1297 4.42346 17.0702 6.46933 17.0702 8.95754C17.0702 11.0218 18.4618 12.7728 20.3728 13.3257C20.3728 13.7681 20.0018 14.1367 19.5565 14.1367H15.3633V16.6433H20.3728V29.8585H20.3914C20.7996 29.9322 21.2078 29.9691 21.6345 29.9691C22.0612 29.9691 22.488 29.9322 22.8962 29.8401V29.8585V16.6433H27.9057V14.1367H23.694C23.2858 14.1367 22.9147 13.7681 22.9147 13.3257ZM19.6121 8.95754C19.6121 7.83323 20.5213 6.93011 21.653 6.93011C22.7848 6.93011 23.694 7.83323 23.694 8.95754C23.694 10.0818 22.7848 10.985 21.653 10.985C20.5213 10.985 19.6121 10.0818 19.6121 8.95754Z" fill="white"/>
<path d="M71.6554 21.4723C71.6554 27.3888 67.0169 31.9966 61.8775 31.9966C56.7381 31.9966 52.0996 27.3888 52.0996 21.4723C52.0996 15.5559 56.7381 10.9481 61.8775 10.9481C67.0169 10.9481 71.6554 15.5375 71.6554 21.4723ZM54.7714 21.4723C54.7714 26.246 58.2409 29.6927 61.8961 29.6927C65.5326 29.6927 69.0208 26.246 69.0208 21.4723C69.0208 16.6987 65.5512 13.252 61.8961 13.252C58.2409 13.2336 54.7714 16.6987 54.7714 21.4723Z" fill="#0E0AFF"/>
<path d="M73.8643 11.0956H86.0356V13.3995H76.5175V19.9794H86.2768V22.2833H76.4989V29.5268H86.351V31.8307H73.8457V11.0956H73.8643Z" fill="#0E0AFF"/>
<path d="M109.357 24.1265C109.357 19.4081 112.66 16.0905 116.742 16.0905C120.824 16.0905 124.126 19.4081 124.126 24.1265C124.126 28.8448 120.824 32.1625 116.742 32.1625C112.66 32.1625 109.357 28.8448 109.357 24.1265ZM121.492 24.1265C121.492 20.772 119.172 18.5418 116.742 18.5418C114.274 18.5418 111.992 20.772 111.992 24.1265C111.992 27.4809 114.274 29.7111 116.742 29.7111C119.172 29.7295 121.492 27.4809 121.492 24.1265Z" fill="#0E0AFF"/>
<path d="M127.242 18.7077H124.422V16.2563H125.646C126.945 16.2563 127.576 15.6296 127.576 14.3395V10.9297H129.858V16.2563H133.383V18.7077H129.858V26.928C129.858 28.7158 130.916 29.7295 132.493 29.7295C132.734 29.7295 132.957 29.6927 133.124 29.6558L133.365 29.5452V31.8122C133.254 31.886 133.124 31.9597 132.975 31.9781C132.66 32.0887 132.27 32.144 131.788 32.144C129.357 32.144 127.205 30.0428 127.205 26.9095V18.7077H127.242Z" fill="#0E0AFF"/>
<path d="M104.738 11.114V13.123V18.1916C104.385 17.8045 103.996 17.4543 103.55 17.141C102.734 16.6249 101.584 16.0904 99.988 16.0904C95.9061 16.0904 92.6035 19.4081 92.6035 24.1264C92.6035 28.8448 95.9061 32.1624 99.988 32.1624C101.565 32.1624 102.734 31.7385 103.55 31.2225C104.014 30.946 104.404 30.6327 104.738 30.2456V31.9966H107.372V28.8448V13.123V11.114H104.738ZM100.174 29.7295C97.5389 29.7295 95.2567 27.4994 95.2567 24.1449C95.2567 20.7904 97.5389 18.5602 100.174 18.5602C102.808 18.5602 105.109 20.7904 105.109 24.1449C105.09 27.4809 102.808 29.7295 100.174 29.7295Z" fill="#0E0AFF"/>
<path d="M91.7118 29.5452H89.2441V31.9966H91.7118V29.5452Z" fill="#0E0AFF"/>
</svg>
